# Blender 5.0.1
# www.blender.org
mtllib Triangle Building Ramp.mtl
o Cube
v -0.500000 -0.500000 0.500000
v -0.500000 0.500000 -0.500000
v -0.500000 -0.500000 -0.500000
v 0.500000 -0.500000 0.500000
v 0.500000 0.500000 -0.500000
v 0.500000 -0.500000 -0.500000
vn -1.0000 -0.0000 -0.0000
vn -0.0000 -0.0000 -1.0000
vn 1.0000 -0.0000 -0.0000
vn -0.0000 0.7071 0.7071
vn -0.0000 -1.0000 -0.0000
vt 0.375000 0.000000
vt 0.625000 0.250000
vt 0.375000 0.250000
vt 0.625000 0.500000
vt 0.375000 0.500000
vt 0.375000 0.750000
vt 0.625000 1.000000
vt 0.375000 1.000000
vt 0.125000 0.500000
vt 0.125000 0.750000
s 0
usemtl Material.001
f 1/1/1 2/2/1 3/3/1
f 3/3/2 2/2/2 5/4/2 6/5/2
f 6/5/3 5/4/3 4/6/3
f 4/6/4 5/4/4 2/7/4 1/8/4
f 3/9/5 6/5/5 4/6/5 1/10/5
